<?xml version="1.0" encoding="UTF-8" standalone="no"?>
<svg
   xmlns:dc="http://purl.org/dc/elements/1.1/"
   xmlns:cc="http://creativecommons.org/ns#"
   xmlns:rdf="http://www.w3.org/1999/02/22-rdf-syntax-ns#"
   xmlns:svg="http://www.w3.org/2000/svg"
   xmlns="http://www.w3.org/2000/svg"
   xmlns:sodipodi="http://sodipodi.sourceforge.net/DTD/sodipodi-0.dtd"
   xmlns:inkscape="http://www.inkscape.org/namespaces/inkscape"
   fill="#5051B5"
   height="48"
   viewBox="0 0 24 24"
   width="48"
   id="svg2"
   version="1.1"
   inkscape:version="0.48.4 r9939"
   sodipodi:docname="icon.svg"
   inkscape:export-filename="/home/fbusquet/dev/album/misc/logo/mdicon2/icon192.png"
   inkscape:export-xdpi="360"
   inkscape:export-ydpi="360">
  <metadata
     id="metadata12">
    <rdf:RDF>
      <cc:Work
         rdf:about="">
        <dc:format>image/svg+xml</dc:format>
        <dc:type
           rdf:resource="http://purl.org/dc/dcmitype/StillImage" />
        <dc:title></dc:title>
      </cc:Work>
    </rdf:RDF>
  </metadata>
  <defs
     id="defs10" />
  <sodipodi:namedview
     pagecolor="#ffffff"
     bordercolor="#666666"
     borderopacity="1"
     objecttolerance="10"
     gridtolerance="10"
     guidetolerance="10"
     inkscape:pageopacity="0"
     inkscape:pageshadow="2"
     inkscape:window-width="1077"
     inkscape:window-height="854"
     id="namedview8"
     showgrid="true"
     inkscape:zoom="11.51883"
     inkscape:cx="24"
     inkscape:cy="24"
     inkscape:window-x="65"
     inkscape:window-y="24"
     inkscape:window-maximized="0"
     inkscape:current-layer="svg2">
    <inkscape:grid
       type="xygrid"
       id="grid3759"
       empspacing="5"
       visible="true"
       enabled="true"
       snapvisiblegridlinesonly="true" />
  </sodipodi:namedview>
  <rect
     style="fill:#ffffff;fill-opacity:1;fill-rule:nonzero;stroke:none"
     id="rect3761"
     width="12.454148"
     height="6"
     x="9.0729914"
     y="8.9777966"
     ry="6.9388939e-17" />
  <path
     d="m 23.52714,14.488715 0,-12.0000006 c 0,-1.1 -0.9,-2 -2,-2 l -11.9999998,0 c -1.1,0 -2,0.9 -2,2 l 0,12.0000006 c 0,1.1 0.9,2 2,2 l 11.9999998,0 c 1.1,0 2,-0.9 2,-2 z m -11,-4 2.03,2.71 2.97,-3.7100001 4,5.0000001 -11.9999998,0 z"
     id="path6"
     inkscape:connector-curvature="0"
     sodipodi:nodetypes="ssssssssscccccc"
     style="fill:#89c34a;fill-opacity:1;fill-rule:nonzero" />
  <path
     d="M0 0h24v24H0z"
     fill="none"
     id="path4" />
  <rect
     style="fill:#ffffff;fill-opacity:1;fill-rule:nonzero;stroke:none"
     id="rect3761-0"
     width="12.454148"
     height="6"
     x="5.5458517"
     y="12.489082"
     ry="6.9388939e-17" />
  <path
     d="M 20,18 20,5.9999996 c 0,-1.1 -0.9,-2 -2,-2 l -11.9999998,0 c -1.1,0 -2,0.9 -2,2 l 0,12.0000004 c 0,1.1 0.9,2 2,2 L 18,20 c 1.1,0 2,-0.9 2,-2 z M 8.9999997,14 11.03,16.71 14,13 18,18 6.0000002,18 z"
     id="path6-1"
     inkscape:connector-curvature="0"
     sodipodi:nodetypes="ssssssssscccccc"
     style="fill:#ffc107;fill-opacity:1;fill-rule:nonzero" />
  <rect
     style="fill:#ffffff;fill-opacity:1;fill-rule:nonzero;stroke:none"
     id="rect3761-2"
     width="12.454148"
     height="6"
     x="2.0553432"
     y="16.028475"
     ry="6.9388939e-17" />
  <path
     d="m 16.509491,21.539392 0,-12.0000003 c 0,-1.1 -0.9,-2 -2,-2 l -11.9999993,0 c -1.1,0 -2.00000005,0.9 -2.00000005,2 l 0,12.0000003 c 0,1.1 0.90000005,2 2.00000005,2 l 11.9999993,0 c 1.1,0 2,-0.9 2,-2 z m -10.9999998,-4 2.0299999,2.71 2.9699999,-3.71 4,5 -11.9999994,0 z"
     id="path6-5"
     inkscape:connector-curvature="0"
     sodipodi:nodetypes="ssssssssscccccc"
     style="fill:#4dacf3;fill-opacity:1;fill-rule:nonzero" />
</svg>
